<svg width="85" height="85" viewBox="0 0 85 85" fill="none" xmlns="http://www.w3.org/2000/svg">
<path d="M22.5632 76.707C21.9879 73.3764 19.0767 70.8335 15.5832 70.8335C12.7938 70.8335 10.377 72.4541 9.22233 74.8029C8.99423 74.6401 8.75052 74.4955 8.49983 74.3651V51.0001C8.49983 50.2182 7.86516 49.5835 7.08322 49.5835C6.30129 49.5835 5.66661 50.2182 5.66661 51.0001V73.6667C2.54153 73.6667 0 76.2083 0 79.3335C0 82.4587 2.54153 85.0001 5.66661 85.0001H21.25C23.5931 85.0001 25.5 83.0933 25.5 80.7501C25.5 78.8645 24.266 77.2623 22.5632 76.707ZM21.25 82.1667H5.66661C4.10407 82.1667 2.83322 80.896 2.83322 79.3333C2.83322 77.7706 4.10407 76.5001 5.66661 76.5001C6.98843 76.5001 8.16282 77.2679 8.58915 78.4126C8.82854 79.0544 9.49161 79.4326 10.1688 79.3108C10.8431 79.1889 11.3332 78.6024 11.3332 77.9167C11.3332 75.5736 13.2401 73.6667 15.5832 73.6667C17.9264 73.6667 19.8332 75.5736 19.8332 77.9167C19.8332 78.6987 20.4679 79.3333 21.2498 79.3333C22.0304 79.3333 22.6664 79.9693 22.6664 80.7499C22.6664 81.5305 22.0306 82.1667 21.25 82.1667Z" fill="#35659F"/>
<path d="M83.5834 11.3334H56.6666C55.8847 11.3334 55.25 11.9681 55.25 12.75C55.25 13.5319 55.8847 14.1666 56.6666 14.1666H82.1666V44.7469L43.5016 6.08182C43.2238 5.80407 42.8598 5.66678 42.4957 5.66678C42.1316 5.66678 41.7675 5.80424 41.4898 6.08182L2.83339 44.7454V14.1666H18.4168C19.1987 14.1666 19.8334 13.5319 19.8334 12.75V7.08339C19.8334 6.30146 19.1987 5.66678 18.4168 5.66678H17V2.83339H25.5V5.66678H24.0834C23.3015 5.66678 22.6668 6.30146 22.6668 7.08339V12.75C22.6668 13.5319 23.3015 14.1666 24.0834 14.1666H28.3334C29.1153 14.1666 29.75 13.5319 29.75 12.75C29.75 11.9681 29.1153 11.3334 28.3334 11.3334H25.5V8.5H26.9166C27.6985 8.5 28.3332 7.86532 28.3332 7.08339V1.41661C28.3332 0.634678 27.6985 0 26.9166 0H15.5834C14.8015 0 14.1668 0.634678 14.1668 1.41661V7.08322C14.1668 7.86516 14.8015 8.49983 15.5834 8.49983H17V11.3332H1.41661C1.04125 11.3332 0.68 11.482 0.415039 11.7483C0.14875 12.0134 0 12.3746 0 12.75L0.00564453 48.1666C0.00564453 48.7404 0.351289 49.256 0.881211 49.4756C1.05686 49.5479 1.23964 49.5834 1.42242 49.5834C1.79214 49.5834 2.15488 49.439 2.42399 49.1684L42.4957 9.08222L82.5816 49.1682C82.8523 49.4388 83.2148 49.5832 83.5832 49.5832C83.766 49.5832 83.9501 49.5479 84.1258 49.4755C84.6542 49.2558 84.9998 48.7389 84.9998 48.1664V12.75C85 11.9681 84.3653 11.3334 83.5834 11.3334Z" fill="#35659F"/>
<path d="M79.3334 73.6667V51.0001C79.3334 50.2182 78.6987 49.5835 77.9168 49.5835C77.1348 49.5835 76.5002 50.2182 76.5002 51.0001V74.3651C76.2495 74.4955 76.0058 74.6399 75.7777 74.8029C74.623 72.4541 72.2062 70.8335 69.4168 70.8335C65.9233 70.8335 63.0121 73.3764 62.4368 76.707C60.734 77.2623 59.5 78.8645 59.5 80.7501C59.5 81.2501 59.6019 81.722 59.7621 82.1667H35.4166C34.6347 82.1667 34 82.8014 34 83.5833C34 84.3653 34.6347 84.9999 35.4166 84.9999H63.75H69.4166H79.3332C82.4585 85.0001 85 82.4586 85 79.3335C85 76.2084 82.4585 73.6667 79.3334 73.6667ZM79.3334 82.1667H69.4168H63.75C62.9694 82.1667 62.3334 81.5307 62.3334 80.7501C62.3334 79.9695 62.9694 79.3335 63.75 79.3335C64.5319 79.3335 65.1666 78.6988 65.1666 77.9169C65.1666 75.5737 67.0735 73.6669 69.4166 73.6669C71.7598 73.6669 73.6666 75.5737 73.6666 77.9169C73.6666 78.6025 74.1569 79.1891 74.831 79.3109C75.5039 79.4341 76.1713 79.0544 76.4107 78.4128C76.837 77.2681 78.0116 76.5003 79.3332 76.5003C80.8958 76.5003 82.1666 77.771 82.1666 79.3337C82.1666 80.8964 80.8959 82.1667 79.3334 82.1667Z" fill="#35659F"/>
<path d="M48.1667 28.3334C48.1667 25.2081 45.6252 22.6667 42.5001 22.6667C39.3749 22.6667 36.8335 25.2083 36.8335 28.3334C36.8335 31.4584 39.3749 34 42.5001 34C45.6254 34 48.1667 31.4584 48.1667 28.3334ZM39.6667 28.3334C39.6667 26.7708 40.9374 25.5 42.5001 25.5C44.0626 25.5 45.3335 26.7707 45.3335 28.3334C45.3335 29.8959 44.0628 31.1667 42.5001 31.1667C40.9376 31.1666 39.6667 29.8959 39.6667 28.3334Z" fill="#35659F"/>
<path d="M69.4167 48.1665H58.0833C57.3014 48.1665 56.6667 48.8012 56.6667 49.5831V65.1665H55.2501C54.4682 65.1665 53.8335 65.8012 53.8335 66.5831C53.8335 67.3651 54.4682 67.9997 55.2501 67.9997H72.2501C73.032 67.9997 73.6667 67.3651 73.6667 66.5831C73.6667 65.8012 73.032 65.1665 72.2501 65.1665H70.8335V49.5831C70.8335 48.8012 70.1988 48.1665 69.4167 48.1665ZM68.0001 65.1665H59.5001V59.4999H68.0001V65.1665ZM68.0001 56.6665H59.5001V50.9999H68.0001V56.6665Z" fill="#35659F"/>
<path d="M56.6666 77.9166C56.6666 77.1346 56.0319 76.5 55.2499 76.5H50.9999V49.5834C50.9999 48.8014 50.3653 48.1667 49.5833 48.1667H35.4167C34.6348 48.1667 34.0001 48.8014 34.0001 49.5834V76.5H29.7501C28.9682 76.5 28.3335 77.1346 28.3335 77.9166V83.5832C28.3335 84.3651 28.9682 84.9998 29.7501 84.9998C30.532 84.9998 31.1667 84.3651 31.1667 83.5832V79.3332H55.2499C56.0319 79.3334 56.6666 78.6987 56.6666 77.9166ZM48.1666 62.3334H46.7499C45.968 62.3334 45.3333 62.968 45.3333 63.75C45.3333 64.5319 45.968 65.1666 46.7499 65.1666H48.1666V76.5H36.8332V51H48.1666V62.3334Z" fill="#35659F"/>
<path d="M26.9167 48.1665H15.5835C14.8016 48.1665 14.1669 48.8012 14.1669 49.5831V65.1665H12.7501C11.9682 65.1665 11.3335 65.8012 11.3335 66.5831C11.3335 67.3651 11.9682 67.9999 12.7501 67.9999H29.7501C30.532 67.9999 31.1667 67.3652 31.1667 66.5833C31.1667 65.8013 30.532 65.1667 29.7501 65.1667H28.3335V49.5833C28.3335 48.8012 27.6988 48.1665 26.9167 48.1665ZM25.5001 65.1665H17.0001V59.4999H25.5001V65.1665ZM25.5001 56.6665H17.0001V50.9999H25.5001V56.6665Z" fill="#35659F"/>
</svg>
