<svg width="98" height="82" viewBox="0 0 98 82" fill="none" xmlns="http://www.w3.org/2000/svg">
<path d="M69.4198 11.9394L21.0122 11.9394C20.3001 11.9394 19.7231 12.5132 19.7231 13.221C19.7231 13.9288 20.3001 14.5027 21.0122 14.5027L69.4198 14.5027C70.1319 14.5027 70.7089 13.9289 70.7089 13.221C70.7089 12.5131 70.1317 11.9394 69.4198 11.9394Z" fill="#35659F"/>
<path d="M69.4198 54.9267L65.1781 54.9267C64.466 54.9267 63.889 55.5005 63.889 56.2084C63.889 56.9162 64.466 57.49 65.1781 57.49L69.4198 57.49C70.1319 57.49 70.7089 56.9162 70.7089 56.2084C70.7089 55.5004 70.1317 54.9267 69.4198 54.9267Z" fill="#35659F"/>
<path d="M69.4198 44.1801L65.1781 44.1801C64.466 44.1801 63.889 44.754 63.889 45.4618C63.889 46.1696 64.466 46.7434 65.1781 46.7434L69.4198 46.7434C70.1319 46.7434 70.7089 46.1696 70.7089 45.4618C70.7089 44.7538 70.1317 44.1801 69.4198 44.1801Z" fill="#35659F"/>
<path d="M69.4198 33.4331L65.1781 33.4331C64.466 33.4331 63.889 34.0069 63.889 34.7147C63.889 35.4225 64.466 35.9963 65.1781 35.9963L69.4198 35.9963C70.1319 35.9963 70.7089 35.4225 70.7089 34.7147C70.7089 34.0071 70.1317 33.4331 69.4198 33.4331Z" fill="#35659F"/>
<path d="M69.4198 22.6862L65.1781 22.6862C64.466 22.6862 63.889 23.2601 63.889 23.9679C63.889 24.6757 64.466 25.2495 65.1781 25.2495L69.4198 25.2495C70.1319 25.2495 70.7089 24.6757 70.7089 23.9679C70.7089 23.2601 70.1317 22.6862 69.4198 22.6862Z" fill="#35659F"/>
<path d="M33.6074 53H55.3925C56.4734 53 57.3528 52.1424 57.3528 51.0882V35.1857H58.6537C59.2453 35.1857 59.7614 34.8155 59.9379 34.2646C60.1145 33.7134 59.9062 33.1222 59.4198 32.7935L45.2659 23.2292C44.8138 22.9236 44.1863 22.9236 43.734 23.2292L29.5801 32.7935C29.0937 33.1223 28.8854 33.7136 29.0623 34.2647C29.2387 34.8155 29.7548 35.1855 30.3463 35.1855H31.6473V51.0882C31.6471 52.1424 32.5265 53 33.6074 53ZM47.0402 50.9692H41.9597V42.3847H47.0402V50.9692ZM55.2705 50.9692H49.1226V42.2203C49.1226 41.1912 48.2641 40.354 47.2089 40.354H41.7911C40.7358 40.354 39.8774 41.1912 39.8774 42.2203V50.9693H33.7297V35.1857H55.2705V50.9692ZM44.4999 25.1823L56.2981 33.1548H32.7018L44.4999 25.1823Z" fill="#35659F"/>
<path d="M11.2891 61.1871C10.577 61.1871 10 61.7609 10 62.4687L10 67.1482C10 69.7017 12.0857 71.7792 14.6492 71.7792L77.6004 71.7792L77.6004 71.8363C77.6004 77.4404 82.1758 82 87.8001 82C93.4244 82 97.9998 77.4404 97.9998 71.8363L97.9998 31.7427C97.9998 31.0349 97.4228 30.4611 96.7108 30.4611C95.9987 30.4611 95.4217 31.0349 95.4217 31.7427L95.4217 71.8363C95.4217 76.0271 92.0026 79.4367 87.8001 79.4367C83.5976 79.4367 80.1785 76.0272 80.1785 71.8363L80.1785 70.4976L80.1785 16.9176C80.3557 17.1153 80.5415 17.3074 80.7357 17.4933C82.5113 19.1929 84.7828 20.1728 87.2109 20.3085C87.2609 20.3114 87.3116 20.3119 87.3618 20.3139C87.489 20.3192 87.6162 20.3237 87.7441 20.3244C87.7628 20.3245 87.7812 20.3259 87.8001 20.3259C87.8544 20.3259 87.9079 20.3223 87.9622 20.3215C88.0402 20.3203 88.1179 20.3213 88.1963 20.3184C88.2277 20.3172 88.2585 20.3141 88.2899 20.3126C88.359 20.3093 88.4276 20.3044 88.4965 20.2998C88.6046 20.2924 88.7124 20.284 88.8197 20.2733C88.8915 20.2661 88.963 20.2581 89.0345 20.2494C89.1344 20.2372 89.2335 20.2235 89.3325 20.2085C89.4107 20.1967 89.4888 20.1846 89.5663 20.1711C89.6517 20.1561 89.7366 20.1391 89.8213 20.122C89.9107 20.1041 89.9999 20.0863 90.0884 20.066C90.1476 20.0523 90.2058 20.0368 90.2646 20.0222C92.2888 19.5197 94.077 18.4166 95.4219 16.9098L95.4219 26.5449C95.4219 27.2527 95.9989 27.8266 96.7109 27.8266C97.423 27.8266 98 27.2527 98 26.5449L98 10.163C98 10.1472 97.9983 10.1318 97.9976 10.116C97.9871 7.48407 96.9829 5.00932 95.14 3.10652C93.2001 1.10324 90.5934 -6.47505e-07 87.8003 -8.91689e-07L14.6492 -7.28676e-06C12.0857 -7.51087e-06 10 2.07744 10 4.63097L10 33.1303C10 33.8381 10.577 34.4119 11.2891 34.4119C12.0011 34.4119 12.5781 33.8381 12.5781 33.1303L12.5781 4.63115C12.5781 3.49101 13.5071 2.56344 14.6492 2.56344L87.8001 2.56345C89.8861 2.56345 91.8331 3.38779 93.2827 4.88457C94.7148 6.36341 95.4693 8.30569 95.4166 10.3625C95.4154 10.4059 95.4152 10.4494 95.4133 10.4929C95.4102 10.5674 95.4047 10.6413 95.3994 10.7153C95.3956 10.7678 95.3922 10.8206 95.3873 10.8727C95.3808 10.9435 95.3722 11.0137 95.3638 11.0839C95.3574 11.1367 95.3511 11.1896 95.3435 11.242C95.3332 11.3143 95.3212 11.3862 95.3088 11.458C95.3005 11.5055 95.2923 11.5532 95.2832 11.6005C95.2682 11.6781 95.2517 11.7552 95.2344 11.8319C95.2256 11.8705 95.2168 11.9091 95.2076 11.9476C95.1868 12.033 95.1646 12.1178 95.1409 12.2022C95.1333 12.229 95.1257 12.2557 95.118 12.2825C95.0902 12.3775 95.0608 12.472 95.0293 12.5655C95.0249 12.5787 95.0204 12.5918 95.0159 12.605C94.2916 14.718 92.6532 16.421 90.5786 17.2377C90.5687 17.2416 90.5587 17.2455 90.5486 17.2495C90.4563 17.2854 90.3628 17.319 90.2687 17.3513C90.2423 17.3604 90.2158 17.3694 90.1892 17.3783C90.1084 17.4052 90.0269 17.4303 89.9451 17.4544C89.9038 17.4665 89.8624 17.4783 89.8208 17.4897C89.7507 17.509 89.6801 17.5275 89.6091 17.5449C89.5546 17.5583 89.4998 17.5707 89.4448 17.5829C89.3838 17.5964 89.3226 17.6094 89.261 17.6215C89.1957 17.6341 89.1301 17.6456 89.0642 17.6567C89.0101 17.6657 88.9558 17.6748 88.9013 17.6828C88.8288 17.6933 88.7559 17.7021 88.6829 17.7105C88.6321 17.7163 88.5814 17.7226 88.5304 17.7274C88.4558 17.7346 88.3807 17.7396 88.3056 17.7445C88.2533 17.7479 88.2014 17.7519 88.1488 17.7543C88.0799 17.7573 88.0106 17.7582 87.9412 17.7596C87.8797 17.7606 87.818 17.7623 87.7566 17.7621C87.681 17.7616 87.6059 17.759 87.5309 17.7565C87.479 17.7548 87.4271 17.7536 87.3754 17.7508C87.2822 17.7457 87.1896 17.7382 87.0973 17.7297C87.0662 17.7269 87.0347 17.7247 87.0038 17.7216C86.8833 17.7092 86.7635 17.6941 86.6448 17.676L86.6403 17.6753C83.2408 17.1555 80.5741 14.3878 80.2191 10.9469C80.1928 10.6882 80.1794 10.4267 80.1794 10.1627C80.1794 10.153 80.1775 10.1437 80.1771 10.1342C80.1761 10.0889 80.1726 10.0443 80.167 10.0002C80.1644 9.98037 80.1613 9.96071 80.1579 9.94124C80.1501 9.89749 80.1403 9.85459 80.1283 9.81255C80.1249 9.80076 80.1223 9.78863 80.1185 9.77684C80.1032 9.72848 80.0843 9.68183 80.0635 9.63621C80.0561 9.6198 80.048 9.60374 80.04 9.58768C80.0202 9.54871 79.9987 9.51077 79.9752 9.4742C79.9678 9.46275 79.9609 9.45113 79.9533 9.43986C79.9258 9.39987 79.8954 9.3621 79.8636 9.32554C79.8511 9.31119 79.8384 9.29734 79.8251 9.2835C79.7942 9.25103 79.7619 9.2201 79.7278 9.19105C79.717 9.18181 79.7062 9.17259 79.695 9.1637C79.6574 9.13363 79.6177 9.10612 79.5766 9.08031C79.5627 9.0716 79.5489 9.06322 79.5347 9.05502C79.487 9.02751 79.4381 9.00223 79.3868 8.98086L79.3829 8.9788C79.3781 8.97675 79.3731 8.9759 79.3683 8.97402C79.321 8.95522 79.2722 8.93968 79.2222 8.92635C79.2083 8.92277 79.1945 8.919 79.1806 8.91575C79.1271 8.90345 79.0728 8.89354 79.017 8.88807C79.0084 8.88721 78.9999 8.88738 78.9914 8.88687C78.9577 8.88414 78.9238 8.88174 78.8893 8.88174C78.8753 8.88174 78.8619 8.88345 78.8482 8.8838C78.832 8.88431 78.816 8.88517 78.7999 8.88619C78.7475 8.88978 78.6956 8.89576 78.645 8.90533C78.6421 8.90584 78.639 8.906 78.6361 8.90669C78.5795 8.91797 78.5247 8.93369 78.4711 8.95198C78.4606 8.95556 78.4505 8.95933 78.4402 8.96326C78.3896 8.98188 78.3403 9.00307 78.293 9.02768C78.2896 9.02939 78.286 9.03093 78.2825 9.03264C78.2324 9.05929 78.1847 9.08971 78.1389 9.12252C78.1285 9.12987 78.1184 9.13756 78.1083 9.14525C78.0627 9.17994 78.0185 9.21634 77.9782 9.25667C77.9751 9.25974 77.972 9.26367 77.9689 9.26692C77.9426 9.29358 77.9171 9.32109 77.8932 9.34997C77.8855 9.35937 77.879 9.36928 77.8716 9.37885C77.8532 9.40243 77.8348 9.42584 77.8181 9.45062C77.8123 9.45933 77.8075 9.46857 77.8018 9.47728C77.7848 9.50394 77.768 9.53059 77.753 9.55845C77.7497 9.5646 77.747 9.5711 77.7439 9.57742C77.7277 9.60835 77.7124 9.63979 77.6989 9.67209C77.6971 9.67619 77.6959 9.68046 77.6942 9.68474C77.6803 9.71925 77.6672 9.75411 77.6562 9.79C77.6549 9.79461 77.654 9.79922 77.6526 9.80384C77.6423 9.83904 77.6329 9.87476 77.6255 9.91116C77.6232 9.92193 77.6224 9.93304 77.6205 9.94397C77.6152 9.97421 77.6098 10.0045 77.6067 10.0356C77.6024 10.0779 77.6002 10.1207 77.6002 10.1636L77.6002 69.2161L14.6492 69.2161C13.5071 69.2161 12.5781 68.2885 12.5781 67.1484L12.5781 62.4689C12.5781 61.7607 12.0011 61.1871 11.2891 61.1871Z" fill="#35659F"/>
<path d="M10.4545 41.2271V42.4647C8.82453 43.0392 7.96854 44.8259 8.54261 46.4559C8.98427 47.7099 10.1703 48.5477 11.4999 48.5454C12.0773 48.5454 12.5452 49.0132 12.5452 49.5907C12.5452 50.1682 12.0773 50.636 11.4999 50.636C10.9224 50.636 10.4545 50.1682 10.4545 49.5907H8.36353C8.36884 50.9149 9.20585 52.0934 10.4545 52.5347V53.7727H12.5452V52.5347C14.1752 51.9606 15.0312 50.1739 14.4571 48.5439C14.0154 47.2899 12.8294 46.4517 11.4999 46.4544C10.9224 46.4544 10.4545 45.9862 10.4545 45.4087C10.4545 44.8316 10.9224 44.3634 11.4999 44.3634C12.0773 44.3634 12.5452 44.8316 12.5452 45.4087H14.6362C14.6309 44.0845 13.7939 42.9064 12.5452 42.4647V41.2271H10.4545Z" fill="#35659F"/>
<path d="M0 47.5C0 53.8516 5.1488 59 11.5 59C17.8512 59 23 53.8516 23 47.5C23 41.1488 17.8512 36 11.5 36C5.15184 36.0076 0.0075885 41.1518 0 47.5ZM20.909 47.5C20.909 52.6966 16.6966 56.9094 11.5 56.9094C6.30339 56.9094 2.09063 52.6966 2.09063 47.5C2.09063 42.3034 6.30339 38.091 11.5 38.091C16.694 38.0975 20.9029 42.3064 20.909 47.5Z" fill="#35659F"/>
</svg>
