<svg width="108" height="93" viewBox="0 0 108 93" fill="none" xmlns="http://www.w3.org/2000/svg">
<path d="M107.717 83.6069L90.8416 58.2432C90.3252 57.4671 89.2789 57.2557 88.501 57.7748C87.7248 58.2939 87.5155 59.3423 88.0336 60.1201L103.16 82.8544H4.83981L19.9666 60.1218C20.4846 59.344 20.2754 58.2956 19.4991 57.7765C18.7195 57.2574 17.6733 57.4688 17.1586 58.2449L0.283562 83.6085C-0.0606882 84.126 -0.0944382 84.7939 0.199187 85.3434C0.492812 85.893 1.06487 86.2362 1.68756 86.2362H106.313C106.935 86.2362 107.507 85.8913 107.801 85.3417C108.095 84.7922 108.061 84.126 107.717 83.6069Z" fill="#35659F"/>
<path d="M106.312 82.8545H1.6875C0.754313 82.8545 0 83.6103 0 84.5454V91.309C0 92.2441 0.754313 92.9999 1.6875 92.9999H106.312C107.246 92.9999 108 92.2441 108 91.309V84.5454C108 83.6103 107.246 82.8545 106.312 82.8545ZM104.625 89.6181H3.375V86.2363H104.625V89.6181Z" fill="#35659F"/>
<path d="M26.1951 64.4186C25.3446 64.0144 24.3439 64.3763 23.9456 65.2167L15.0981 83.8167C14.6964 84.6604 15.0542 85.6699 15.8946 86.0706C16.1308 86.1839 16.3772 86.2364 16.6202 86.2364C17.2513 86.2364 17.8554 85.8813 18.144 85.2725L26.9916 66.6725C27.3932 65.8288 27.0354 64.8193 26.1951 64.4186Z" fill="#35659F"/>
<path d="M36.8584 66.0113C35.9724 65.756 35.0274 66.2717 34.7726 67.1713L32.3527 75.6258C32.0962 76.522 32.6143 77.4588 33.5104 77.7158C33.6639 77.7598 33.8209 77.7817 33.9761 77.7817C34.7085 77.7817 35.3852 77.2998 35.5961 76.5558L38.016 68.1013C38.2725 67.2051 37.7544 66.2684 36.8584 66.0113Z" fill="#35659F"/>
<path d="M92.902 83.8184L89.6822 77.0514C89.284 76.211 88.2833 75.8491 87.4328 76.2533C86.5924 76.654 86.2346 77.6635 86.6363 78.5073L89.856 85.2743C90.1446 85.8813 90.7487 86.2364 91.3798 86.2364C91.6228 86.2364 91.8692 86.184 92.1055 86.0724C92.9458 85.6716 93.3036 84.6622 92.902 83.8184Z" fill="#35659F"/>
<path d="M86.4624 70.2826L80.8363 58.4547C80.4363 57.6143 79.4356 57.2525 78.5868 57.6566C77.7465 58.0573 77.3887 59.0668 77.7903 59.9106L83.4165 71.7385C83.705 72.3455 84.3091 72.7006 84.9403 72.7006C85.1833 72.7006 85.4296 72.6482 85.6659 72.5366C86.5063 72.1358 86.864 71.1264 86.4624 70.2826Z" fill="#35659F"/>
<path d="M75.6472 75.626L73.2273 67.1714C72.9708 66.2702 72.0292 65.7561 71.1416 66.0115C70.2438 66.2685 69.7275 67.2052 69.984 68.1014L72.4038 76.556C72.6165 77.3 73.2898 77.7819 74.0238 77.7819C74.1791 77.7819 74.336 77.7599 74.4896 77.7159C75.3873 77.4589 75.9037 76.5221 75.6472 75.626Z" fill="#35659F"/>
<path d="M25.4712 64.2546H14.062C13.1288 64.2546 12.3745 65.0105 12.3745 65.9455C12.3745 66.8806 13.1288 67.6365 14.062 67.6365H25.4712C26.4027 67.6365 27.1587 66.8806 27.1587 65.9455C27.1587 65.0105 26.4044 64.2546 25.4712 64.2546Z" fill="#35659F"/>
<path d="M101.812 76.0908H88.1617C87.2286 76.0908 86.4742 76.8467 86.4742 77.7817C86.4742 78.7168 87.2286 79.4726 88.1617 79.4726H101.812C102.745 79.4726 103.499 78.7168 103.499 77.7817C103.499 76.8467 102.745 76.0908 101.812 76.0908Z" fill="#35659F"/>
<path d="M97.3131 69.3271H84.9437C84.0105 69.3271 83.2562 70.083 83.2562 71.0181C83.2562 71.9531 84.0105 72.709 84.9437 72.709H97.3131C98.2463 72.709 99.0006 71.9531 99.0006 71.0181C99.0006 70.083 98.2463 69.3271 97.3131 69.3271Z" fill="#35659F"/>
<path d="M50.625 65.9453H36.3926C35.4594 65.9453 34.7051 66.7011 34.7051 67.6362C34.7051 68.5713 35.4594 69.3271 36.3926 69.3271H50.625C51.5581 69.3271 52.3125 68.5713 52.3125 67.6362C52.3125 66.7011 51.5581 65.9453 50.625 65.9453Z" fill="#35659F"/>
<path d="M71.6074 65.9453H57.532C56.5988 65.9453 55.8445 66.7011 55.8445 67.6362C55.8445 68.5713 56.5988 69.3271 57.532 69.3271H71.6074C72.5389 69.3271 73.2949 68.5713 73.2949 67.6362C73.2949 66.7011 72.5406 65.9453 71.6074 65.9453Z" fill="#35659F"/>
<path d="M74.0256 74.3999H33.9745C33.0413 74.3999 32.287 75.1557 32.287 76.0908C32.287 77.0259 33.0413 77.7817 33.9745 77.7817H74.0256C74.9588 77.7817 75.7131 77.0259 75.7131 76.0908C75.7131 75.1557 74.9588 74.3999 74.0256 74.3999Z" fill="#35659F"/>
<path d="M54 0C39.1129 0 27 12.1373 27 27.0545C27 49.3052 51.8316 71.3614 52.8879 72.2897C53.2052 72.5687 53.6034 72.7091 54 72.7091C54.3966 72.7091 54.7948 72.5687 55.1121 72.2897C56.1684 71.3614 81 49.3052 81 27.0545C81 12.1373 68.8871 0 54 0ZM54 68.7202C49.1805 64.1599 30.375 45.2048 30.375 27.0545C30.375 14.0007 40.9725 3.38182 54 3.38182C67.0275 3.38182 77.625 14.0007 77.625 27.0545C77.625 45.2048 58.8195 64.1615 54 68.7202Z" fill="#35659F"/>
<path d="M42.9081 57.491H18.5625C17.6293 57.491 16.875 58.2468 16.875 59.1819C16.875 60.1169 17.6293 60.8728 18.5625 60.8728H42.9081C43.8396 60.8728 44.5956 60.1169 44.5956 59.1819C44.5956 58.2468 43.8412 57.491 42.9081 57.491Z" fill="#35659F"/>
<path d="M89.4375 57.491H65.0902C64.157 57.491 63.4027 58.2468 63.4027 59.1819C63.4027 60.1169 64.157 60.8728 65.0902 60.8728H89.4375C90.3707 60.8728 91.125 60.1169 91.125 59.1819C91.125 58.2468 90.3707 57.491 89.4375 57.491Z" fill="#35659F"/>
<path d="M64.125 37.2H43.875C42.9418 37.2 42.1875 37.9575 42.1875 38.8909C42.1875 39.8242 42.9418 40.5818 43.875 40.5818H64.125C65.0582 40.5818 65.8125 39.8242 65.8125 38.8909C65.8125 37.9575 65.0582 37.2 64.125 37.2Z" fill="#35659F"/>
<path d="M45.5625 16.9092C44.6293 16.9092 43.875 17.6667 43.875 18.6001V38.891C43.875 39.8244 44.6293 40.5819 45.5625 40.5819C46.4957 40.5819 47.25 39.8244 47.25 38.891V18.6001C47.25 17.6667 46.4957 16.9092 45.5625 16.9092Z" fill="#35659F"/>
<path d="M62.4375 22.9473C61.5043 22.9473 60.75 23.7048 60.75 24.6382V38.8908C60.75 39.8242 61.5043 40.5818 62.4375 40.5818C63.3707 40.5818 64.125 39.8242 64.125 38.8908V24.6382C64.125 23.7048 63.3707 22.9473 62.4375 22.9473Z" fill="#35659F"/>
<path d="M55.3737 17.6175C54.8303 16.8566 53.7756 16.6824 53.0196 17.2235L41.2071 25.6781C40.4495 26.2208 40.2739 27.2777 40.8156 28.0369C41.1447 28.4985 41.6611 28.7454 42.1893 28.7454C42.5284 28.7454 42.871 28.6422 43.1697 28.4309L54.9822 19.9763C55.7399 19.4335 55.9154 18.3767 55.3737 17.6175Z" fill="#35659F"/>
<path d="M66.7947 25.6781L54.9822 17.2235C54.2245 16.6824 53.1698 16.8583 52.6281 17.6175C52.0848 18.3767 52.262 19.4335 53.0196 19.9763L64.8321 28.4309C65.1291 28.6422 65.4717 28.7454 65.8109 28.7454C66.3391 28.7454 66.8554 28.4985 67.1862 28.0369C67.7296 27.2777 67.5524 26.2209 66.7947 25.6781Z" fill="#35659F"/>
<path d="M54 32.1272C53.0668 32.1272 52.3125 32.8847 52.3125 33.8181V38.8908C52.3125 39.8242 53.0668 40.5817 54 40.5817C54.9332 40.5817 55.6875 39.8242 55.6875 38.8908V33.8181C55.6875 32.8847 54.9332 32.1272 54 32.1272Z" fill="#35659F"/>
</svg>
