<svg width="82" height="82" viewBox="0 0 82 82" fill="none" xmlns="http://www.w3.org/2000/svg">
<path d="M66.625 68.2266C65.7409 68.2266 65.0234 68.9441 65.0234 69.8281C65.0234 70.7122 65.7409 71.4297 66.625 71.4297C67.5091 71.4297 68.2266 70.7122 68.2266 69.8281C68.2266 68.9441 67.5091 68.2266 66.625 68.2266Z" fill="#35659F"/>
<path d="M71.4297 7.59653V4.80469C71.4297 2.15538 69.2743 0 66.625 0H15.375C12.7257 0 10.5703 2.15538 10.5703 4.80469V7.59653C0.123801 26.8896 0.000480469 26.3167 0 27.2248C0 27.2254 0 27.2259 0 27.2266V30.4297C0 33.2057 1.60509 35.7874 4.16406 37.2555V80.3984C4.16406 81.2828 4.88124 82 5.76562 82H76.2344C77.1188 82 77.8359 81.2828 77.8359 80.3984V37.2555C80.3691 35.7887 82 33.1765 82 30.4297V27.2266C82 27.2259 82 27.2254 82 27.2248C81.9995 26.3069 81.7743 26.7014 71.4297 7.59653ZM77.6899 25.625H67.7794L62.4409 9.60938H68.8813L77.6899 25.625ZM55.4141 28.8281H65.0234V30.4297C65.0234 33.079 62.8681 35.2344 60.2188 35.2344C57.5694 35.2344 55.4141 33.079 55.4141 30.4297V28.8281ZM55.1692 25.625L52.5 9.60938H59.0643L64.4028 25.625H55.1692ZM13.7734 4.80469C13.7734 3.92159 14.4919 3.20312 15.375 3.20312H66.625C67.5081 3.20312 68.2266 3.92159 68.2266 4.80469V6.40625C66.7016 6.40625 15.3103 6.40625 13.7734 6.40625V4.80469ZM52.2109 28.8281V30.4297C52.2109 33.079 50.0556 35.2344 47.4062 35.2344C44.7569 35.2344 42.6016 33.079 42.6016 30.4297V28.8281H52.2109ZM42.6016 25.625V9.60938H49.2527L51.922 25.625H42.6016ZM30.0781 25.625L32.7475 9.60938H39.3984V25.625H30.0781ZM39.3984 28.8281V30.4297C39.3984 33.079 37.2431 35.2344 34.5938 35.2344C31.9444 35.2344 29.7891 33.079 29.7891 30.4297V28.8281H39.3984ZM17.597 25.625L22.9355 9.60938H29.5L26.8307 25.625H17.597ZM26.5859 28.8281V30.4297C26.5859 33.079 24.4306 35.2344 21.7812 35.2344C19.1319 35.2344 16.9766 33.079 16.9766 30.4297V28.8281H26.5859ZM13.1187 9.60938H19.5591L14.2206 25.625H4.31012L13.1187 9.60938ZM3.20312 30.4297V28.8281H13.7734V30.4297C13.7734 32.9443 11.2543 35.2344 8.48828 35.2344C7.79096 35.2344 7.06834 35.083 6.39568 34.7952C4.48614 33.9831 3.20312 32.2286 3.20312 30.4297ZM32.9922 78.7969H16.9766V65.0234H32.9922V78.7969ZM32.9922 61.8203H16.9766V48.0469H32.9922V61.8203ZM74.6328 78.7969H36.1953V46.4453C36.1953 45.5609 35.4781 44.8438 34.5938 44.8438H15.375C14.4906 44.8438 13.7734 45.5609 13.7734 46.4453V78.7969H7.36719V38.3592C7.73843 38.4096 8.11239 38.4375 8.48828 38.4375C10.5961 38.4375 12.7268 37.6024 14.3337 36.1463C14.6891 35.8244 15.009 35.4801 15.2962 35.1192C16.7527 37.1277 19.1163 38.4375 21.7812 38.4375C24.398 38.4375 26.7253 37.1758 28.1875 35.2288C29.6497 37.1758 31.977 38.4375 34.5938 38.4375C37.2105 38.4375 39.5378 37.1758 41 35.2288C42.4622 37.1758 44.7895 38.4375 47.4062 38.4375C50.023 38.4375 52.3503 37.1758 53.8125 35.2288C55.2747 37.1758 57.602 38.4375 60.2188 38.4375C62.8838 38.4375 65.2473 37.1277 66.7038 35.1192C66.991 35.4801 67.311 35.8242 67.6663 36.1463C69.2732 37.6024 71.4039 38.4375 73.5117 38.4375C73.8868 38.4375 74.2608 38.4106 74.6328 38.3598V78.7969ZM78.7969 30.4297C78.7969 32.2792 77.4661 34.0539 75.4858 34.846C74.8381 35.1038 74.1741 35.2344 73.5117 35.2344C70.7457 35.2344 68.2266 32.9443 68.2266 30.4297V28.8281H78.7969V30.4297Z" fill="#35659F"/>
<path d="M69.8281 61.8203H68.2266V46.4453C68.2266 45.5609 67.5094 44.8438 66.625 44.8438H47.4062C46.5219 44.8438 45.8047 45.5609 45.8047 46.4453V61.8203H44.2031C43.3187 61.8203 42.6016 62.5375 42.6016 63.4219C42.6016 64.3063 43.3187 65.0234 44.2031 65.0234H69.8281C70.7125 65.0234 71.4297 64.3063 71.4297 63.4219C71.4297 62.5375 70.7125 61.8203 69.8281 61.8203ZM65.0234 61.8203H49.0078V48.0469H65.0234V61.8203Z" fill="#35659F"/>
<path d="M60.2188 68.2266H47.4062C46.5219 68.2266 45.8047 68.9437 45.8047 69.8281C45.8047 70.7125 46.5219 71.4297 47.4062 71.4297H60.2188C61.1031 71.4297 61.8203 70.7125 61.8203 69.8281C61.8203 68.9437 61.1031 68.2266 60.2188 68.2266Z" fill="#35659F"/>
</svg>
