<svg width="65" height="93" viewBox="0 0 65 93" fill="none" xmlns="http://www.w3.org/2000/svg">
<path d="M35.9521 24.3972L32.1206 10.2186C31.9929 9.84867 31.6097 9.4788 31.2266 9.3555C30.8434 9.23221 30.3325 9.3555 29.9494 9.72538L26.7565 12.6844V10.5884C26.7565 10.2186 26.6287 9.84867 26.2456 9.60209L24.8407 8.49246C25.3516 7.38282 25.0961 6.1499 24.2021 5.28685L18.9657 0.725024C17.8163 -0.261316 16.0282 -0.261316 15.0065 0.848317L14.751 1.0949C13.7293 2.20454 13.7293 3.93063 14.8788 4.91697L20.1152 9.4788C20.626 9.97197 21.2646 10.2186 22.0309 10.2186H22.1586C22.4141 10.2186 22.6695 10.0953 22.9249 10.0953L24.2021 11.0816V15.027L19.3489 19.7121C18.9657 19.9587 18.838 20.4518 18.9657 20.945C19.0934 21.4382 19.3489 21.6848 19.8597 21.8081L34.2918 26C34.4195 26 34.5472 26 34.6749 26C35.0581 26 35.3135 25.8767 35.569 25.6301C35.9521 25.2602 36.0798 24.8904 35.9521 24.3972ZM22.4141 7.50612L22.1586 7.7527C22.0309 7.87599 21.9032 7.87599 21.9032 7.87599C21.9032 7.87599 21.7755 7.87599 21.6478 7.7527L16.5391 3.19088C16.4114 3.06758 16.4114 2.94429 16.5391 2.821L16.7945 2.57441C16.9222 2.45112 17.05 2.45112 17.1777 2.57441L22.4141 7.13624C22.5418 7.25953 22.5418 7.38282 22.4141 7.50612ZM22.6695 19.9587L25.4793 17.2462L28.1614 19.7121C28.4168 19.9587 28.6722 20.082 29.0554 20.082C29.4385 20.082 29.694 19.9587 29.9494 19.7121C30.4603 19.2189 30.4603 18.4792 29.9494 17.986L27.2673 15.6434L30.0771 12.931L32.8869 22.9177L22.6695 19.9587Z" fill="#35659F"/>
<path d="M41.1666 41.0003H58.5001C59.0985 41.0003 59.5833 40.5155 59.5833 39.9168V31.2502C59.5833 30.6514 59.0985 30.167 58.5001 30.167H41.1666C40.5678 30.167 40.0834 30.6514 40.0834 31.2502V39.9168C40.0834 40.5155 40.5678 41.0003 41.1666 41.0003ZM42.2501 32.3337H57.4166V38.8336H42.2501V32.3337Z" fill="#35659F"/>
<path d="M63.9169 43.1667H46.5833C45.9845 43.1667 45.5001 43.6512 45.5001 44.2499V52.9165C45.5001 53.5153 45.9845 54.0001 46.5833 54.0001H63.9169C64.5153 54.0001 65 53.5153 65 52.9165V44.2499C65 43.6512 64.5153 43.1667 63.9169 43.1667ZM62.8333 51.8333H47.6669V45.3331H62.8333V51.8333Z" fill="#35659F"/>
<path d="M63.9169 56.1665H50.9168C50.318 56.1665 49.8333 56.6513 49.8333 57.2501V65.9167C49.8333 66.5154 50.318 66.9998 50.9168 66.9998H63.9169C64.5153 66.9998 65.0001 66.5154 65.0001 65.9167V57.2501C65.0001 56.6513 64.5153 56.1665 63.9169 56.1665ZM62.8333 64.8335H52V58.3332H62.8333V64.8335Z" fill="#35659F"/>
<path d="M63.9168 69.1667H55.2498C54.6514 69.1667 54.1666 69.6515 54.1666 70.2503V78.9169C54.1666 79.5157 54.6514 80.0001 55.2498 80.0001H63.9168C64.5152 80.0001 65 79.5157 65 78.9169V70.2503C65 69.6515 64.5152 69.1667 63.9168 69.1667ZM62.8332 77.8333H56.3334V71.3335H62.8332V77.8333Z" fill="#35659F"/>
<path d="M55.2499 82.1667H47.2295C47.0966 81.4254 46.9444 80.7034 46.764 79.9999H50.9167C51.5155 79.9999 51.9999 79.5155 51.9999 78.9167V70.2501C51.9999 69.6514 51.5155 69.1666 50.9167 69.1666H41.0812C40.4253 68.4064 39.7319 67.6844 38.9999 66.9999H46.5833C47.182 66.9999 47.6668 66.5154 47.6668 65.9167V57.2501C47.6668 56.6513 47.182 56.1665 46.5833 56.1665H29.2501C28.6513 56.1665 28.1665 56.6513 28.1665 57.2501V60.7472L27.2637 60.3953C26.7032 60.1771 26.4371 59.5497 26.6557 58.9892C26.6746 58.951 26.6936 58.9034 26.7129 58.8656L28.0622 56.3759C28.4709 55.606 28.8317 54.8172 29.1454 54.0094H42.2405C42.8393 54.0094 43.3237 53.525 43.3237 52.9262V44.25C43.3237 43.6512 42.8393 43.1668 42.2405 43.1668H30.324C30.2004 42.4348 30.0482 41.7128 29.8488 41.0001H36.8335C37.4319 41.0001 37.9167 40.5153 37.9167 39.9165V31.2499C37.9167 30.6512 37.4319 30.1667 36.8335 30.1667H22.4933C20.4885 28.7602 18.1127 28.0097 15.6702 28H1.08318C0.484798 28 0 28.4848 0 29.0832V91.9168C0 92.5152 0.484798 93 1.08318 93H55.2499C55.8486 93 56.3334 92.5152 56.3334 91.9168V83.2499C56.3334 82.6515 55.8486 82.1667 55.2499 82.1667ZM49.8332 71.3333V77.8332H46.127C45.8802 77.1491 45.6044 76.4838 45.31 75.8283C45.2243 75.6286 45.12 75.4292 45.0249 75.2392C44.8063 74.7733 44.5687 74.3078 44.3122 73.8516C44.2075 73.6519 44.0936 73.4429 43.97 73.2436C43.6756 72.7398 43.3619 72.2361 43.0293 71.7513C42.9532 71.647 42.8868 71.5234 42.8107 71.4094C42.7917 71.3808 42.7821 71.3619 42.7632 71.3333H49.8332ZM30.3333 61.5928V58.3333H45.5001V64.8335H36.3487C36.13 64.6716 35.9021 64.5291 35.6738 64.3773C35.4745 64.244 35.2844 64.1111 35.0847 63.9782C34.7807 63.7882 34.4767 63.6074 34.163 63.427C33.9826 63.3223 33.7925 63.2083 33.6118 63.1037C33.2506 62.9043 32.8898 62.7235 32.5189 62.5528C32.3764 62.4767 32.2338 62.4006 32.082 62.3341C31.5594 62.0869 31.0367 61.8683 30.5044 61.65L30.3333 61.5928ZM41.1666 45.3332V51.8334H29.8867C29.9056 51.7573 29.9246 51.6719 29.9439 51.5958C30.0389 51.225 30.1243 50.8449 30.2004 50.4744C30.229 50.3508 30.2479 50.2272 30.2765 50.1132C30.3618 49.6381 30.4379 49.1629 30.4855 48.6785C30.4947 48.5928 30.4947 48.5074 30.5044 48.4216C30.5422 48.0133 30.5708 47.6139 30.5805 47.2056C30.5898 47.063 30.5898 46.9298 30.5898 46.7872C30.5994 46.3406 30.5898 45.9034 30.5708 45.4568C30.5708 45.4189 30.5708 45.3807 30.5708 45.3428L41.1666 45.3332ZM35.7499 32.3335V38.8333H29.1168C29.0979 38.7762 29.06 38.7194 29.0411 38.6622C28.8224 38.1303 28.5849 37.6076 28.3284 37.0942C28.2998 37.0467 28.2712 36.9992 28.2523 36.9517C28.005 36.4862 27.7389 36.03 27.4635 35.5834C27.3874 35.4598 27.3113 35.3362 27.2355 35.2126C26.9219 34.7374 26.5985 34.2623 26.247 33.8157C26.2184 33.7779 26.1902 33.7493 26.1616 33.7114C25.829 33.2931 25.4868 32.894 25.1256 32.5042C25.0688 32.4474 25.0306 32.381 24.9738 32.3238L35.7499 32.3335ZM2.16674 30.1667H15.6609C17.7801 30.1667 19.8422 30.8605 21.5338 32.1338C21.6952 32.2477 21.8567 32.3713 22.0089 32.5042C22.0279 32.5235 22.0846 32.5803 22.104 32.59C24.47 34.671 26.2756 37.3129 27.3495 40.2777C27.8246 41.5988 28.1476 42.9671 28.3091 44.364C28.6227 47.1295 28.3091 49.9328 27.3874 52.5554C27.0644 53.5057 26.6461 54.4371 26.1616 55.3209L24.8123 57.8106C23.9474 59.3882 24.5272 61.3553 26.0952 62.2202C26.2184 62.2866 26.342 62.3434 26.4656 62.3909L29.7063 63.6549C30.2096 63.8546 30.7041 64.0636 31.1885 64.2915C32.6522 64.976 34.0491 65.812 35.3509 66.7623C36.9853 67.9598 38.4583 69.3567 39.7508 70.9154C41.6325 73.1864 43.0958 75.7711 44.0839 78.5459C44.1697 78.7742 44.2361 78.9928 44.3122 79.2208C44.7491 80.5701 45.0628 81.9577 45.2528 83.3735C45.4143 84.5045 45.4904 85.6542 45.4904 86.8042V90.8143H2.15709V30.1667H2.16674ZM54.1667 90.8333H47.6668V86.8231C47.6668 86.0818 47.6286 85.3405 47.5621 84.5803C47.5525 84.4949 47.5621 84.4095 47.5525 84.3238H54.1667V90.8333Z" fill="#35659F"/>
</svg>
