<svg width="112" height="96" viewBox="0 0 112 96" fill="none" xmlns="http://www.w3.org/2000/svg">
<path d="M111.168 86.8575L93.9047 64.8482C93.3765 64.1747 92.3061 63.9913 91.5103 64.4418C90.7162 64.8922 90.5021 65.802 91.0321 66.4769L106.507 86.2046H5.92326L21.3982 66.4784C21.9282 65.8034 21.7141 64.8937 20.92 64.4433C20.1225 63.9928 19.0521 64.1762 18.5256 64.8497L1.26213 86.859C0.909958 87.308 0.875431 87.8876 1.17582 88.3644C1.4762 88.8413 2.06143 89.1392 2.69845 89.1392H109.732C110.369 89.1392 110.954 88.8398 111.255 88.363C111.555 87.8861 111.52 87.308 111.168 86.8575Z" fill="#35659F"/>
<path d="M109.732 86.2046H2.69851C1.74384 86.2046 0.972168 86.8605 0.972168 87.6719V93.541C0.972168 94.3524 1.74384 95.0083 2.69851 95.0083H109.732C110.687 95.0083 111.458 94.3524 111.458 93.541V87.6719C111.458 86.8605 110.687 86.2046 109.732 86.2046ZM108.006 92.0737H4.42486V89.1392H108.006V92.0737Z" fill="#35659F"/>
<path d="M27.4366 73.7262C26.6023 73.443 25.6206 73.6966 25.2299 74.2855L16.5506 87.3211C16.1566 87.9124 16.5076 88.6199 17.332 88.9008C17.5637 88.9802 17.8054 89.0169 18.0438 89.0169C18.6629 89.0169 19.2556 88.768 19.5386 88.3414L28.218 75.3059C28.6119 74.7145 28.261 74.007 27.4366 73.7262Z" fill="#35659F"/>
<path d="M95.9578 87.1497L93.2002 81.3576C92.8591 80.6383 92.002 80.3286 91.2736 80.6745C90.5538 81.0175 90.2474 81.8815 90.5914 82.6037L93.349 88.3958C93.5962 88.9154 94.1136 89.2194 94.6542 89.2194C94.8623 89.2194 95.0733 89.1745 95.2756 89.079C95.9954 88.736 96.3018 87.8719 95.9578 87.1497Z" fill="#35659F"/>
<path d="M26.3611 73.6101H14.6892C13.7346 73.6101 12.9629 74.266 12.9629 75.0774C12.9629 75.8888 13.7346 76.5447 14.6892 76.5447H26.3611C27.314 76.5447 28.0874 75.8888 28.0874 75.0774C28.0874 74.266 27.3157 73.6101 26.3611 73.6101Z" fill="#35659F"/>
<path d="M103.589 80.5354H91.8977C91.0984 80.5354 90.4524 81.1823 90.4524 81.9827C90.4524 82.7831 91.0984 83.43 91.8977 83.43H103.589C104.388 83.43 105.034 82.7831 105.034 81.9827C105.034 81.1823 104.388 80.5354 103.589 80.5354Z" fill="#35659F"/>
<path d="M41.7162 73.6194C40.9574 73.4008 40.1481 73.8422 39.9298 74.6122L37.8572 81.8487C37.6375 82.6158 38.0813 83.4176 38.8487 83.6376C38.9802 83.6752 39.1147 83.694 39.2476 83.694C39.8749 83.694 40.4545 83.2816 40.6351 82.6447L42.7077 75.4082C42.9274 74.6412 42.4837 73.8394 41.7162 73.6194Z" fill="#35659F"/>
<path d="M74.938 81.8493L72.8655 74.6128C72.6458 73.8414 71.8393 73.4014 71.0791 73.62C70.3101 73.8399 69.8679 74.6418 70.0876 75.4088L72.1601 82.6453C72.3423 83.2822 72.9189 83.6946 73.5476 83.6946C73.6806 83.6946 73.815 83.6758 73.9466 83.6382C74.7155 83.4182 75.1577 82.6164 74.938 81.8493Z" fill="#35659F"/>
<path d="M53.5069 73.5632H41.3171C40.5179 73.5632 39.8718 74.2102 39.8718 75.0105C39.8718 75.8109 40.5179 76.4578 41.3171 76.4578H53.5069C54.3062 76.4578 54.9522 75.8109 54.9522 75.0105C54.9522 74.2102 54.3062 73.5632 53.5069 73.5632Z" fill="#35659F"/>
<path d="M71.4782 73.5632H59.4229C58.6236 73.5632 57.9775 74.2102 57.9775 75.0105C57.9775 75.8109 58.6236 76.4578 59.4229 76.4578H71.4782C72.276 76.4578 72.9235 75.8109 72.9235 75.0105C72.9235 74.2102 72.2775 73.5632 71.4782 73.5632Z" fill="#35659F"/>
<path d="M73.5491 80.7998H39.2461C38.4468 80.7998 37.8008 81.4467 37.8008 82.2471C37.8008 83.0475 38.4468 83.6944 39.2461 83.6944H73.5491C74.3484 83.6944 74.9945 83.0475 74.9945 82.2471C74.9945 81.4467 74.3484 80.7998 73.5491 80.7998Z" fill="#35659F"/>
<path d="M24.5887 64.1948H19.3232C19.1214 64.1948 18.9583 64.7687 18.9583 65.4787C18.9583 66.1887 19.1214 66.7626 19.3232 66.7626H24.5887C24.7901 66.7626 24.9536 66.1887 24.9536 65.4787C24.9536 64.7687 24.7905 64.1948 24.5887 64.1948Z" fill="#35659F"/>
<path d="M72.9764 19.4561C72.7214 19.2011 72.3675 19.0544 72.0067 19.0544C71.646 19.0544 71.2921 19.2011 71.0369 19.4561C70.7818 19.7111 70.635 20.0634 70.635 20.4253C70.635 20.7858 70.7816 21.1395 71.0369 21.3944C71.2922 21.6494 71.646 21.7961 72.0067 21.7961C72.3675 21.7961 72.7214 21.6494 72.9764 21.3944C73.2315 21.1395 73.3784 20.7858 73.3784 20.4253C73.3784 20.0647 73.2317 19.7111 72.9764 19.4561Z" fill="#35659F"/>
<path d="M42.1034 38.6575H31.1298C30.3723 38.6575 29.7581 39.2712 29.7581 40.0283V50.9949C29.7581 51.752 30.3723 52.3657 31.1298 52.3657H42.1034C42.8609 52.3657 43.4751 51.752 43.4751 50.9949V40.0283C43.4751 39.2712 42.861 38.6575 42.1034 38.6575ZM40.7317 49.6241H32.5015V41.3991H40.7317V49.6241Z" fill="#35659F"/>
<path d="M90.9125 28.7548C90.3999 28.5425 89.8098 28.6601 89.4177 29.0519L75.4402 43.0203C75.4401 43.0206 75.4398 43.0207 75.4395 43.021C75.4393 43.0213 75.4391 43.0214 75.439 43.0217L59.1453 59.3049C59.145 59.3052 59.1449 59.3053 59.1446 59.3056C59.1443 59.3059 59.1442 59.306 59.1439 59.3063L50.5983 67.8464C50.2061 68.2385 50.0887 68.8282 50.3009 69.3403C50.5132 69.8526 51.0134 70.1866 51.5682 70.1866H90.3876C91.145 70.1866 91.7593 69.5728 91.7593 68.8157V30.0213C91.7593 29.467 91.4251 28.967 90.9125 28.7548ZM89.0159 67.4449H54.8799L60.1145 62.2137L61.424 63.5223C61.6918 63.79 62.0429 63.9238 62.3939 63.9238C62.7449 63.9238 63.0959 63.79 63.3638 63.5223C63.8995 62.987 63.8995 62.119 63.3638 61.5835L62.0544 60.2749L65.5462 56.7854L66.8555 58.0938C67.1234 58.3615 67.4744 58.4953 67.8254 58.4953C68.1765 58.4953 68.5275 58.3614 68.7954 58.0938C69.331 57.5585 69.331 56.6905 68.7954 56.1552L67.4859 54.8466L70.9778 51.357L72.2872 52.6656C72.5551 52.9333 72.9061 53.0671 73.2571 53.0671C73.6082 53.0671 73.9592 52.9333 74.2271 52.6656C74.7627 52.1303 74.7627 51.2623 74.2271 50.7268L72.9176 49.4183L76.4093 45.9288L77.7188 47.2374C77.9867 47.5051 78.3377 47.6389 78.6887 47.6389C79.0397 47.6389 79.3907 47.5051 79.6586 47.2374C80.1943 46.7021 80.1943 45.8341 79.6586 45.2986L78.3492 43.9901L81.841 40.5005L83.1503 41.8089C83.4182 42.0766 83.7692 42.2104 84.1203 42.2104C84.4713 42.2104 84.8223 42.0765 85.0902 41.8089C85.6258 41.2736 85.6258 40.4056 85.0902 39.8703L83.7808 38.5617L89.0159 33.3308V67.4449Z" fill="#35659F"/>
<path d="M84.0539 45.3022C83.5413 45.0899 82.9512 45.2074 82.559 45.5993L67.1562 60.9923C66.764 61.3843 66.6465 61.9739 66.8588 62.4862C67.0712 62.9985 67.5713 63.3324 68.1261 63.3324H83.5289C84.2864 63.3324 84.9006 62.7187 84.9006 61.9616V46.5687C84.9006 46.0144 84.5665 45.5144 84.0539 45.3022ZM82.1572 60.5908H71.4379L82.1572 49.8782V60.5908Z" fill="#35659F"/>
<path d="M85.0462 20.4611C84.6685 20.0838 84.1064 19.9596 83.6045 20.1432L74.2383 23.5709C74.0511 23.6395 73.8811 23.7479 73.74 23.8888L71.1065 26.5207L53.9099 9.33502C53.6526 9.07799 53.3037 8.93351 52.9399 8.93351C52.5762 8.93351 52.2272 9.07799 51.97 9.33502L31.2705 30.0212H26.2112L52.9399 3.30955L67.6075 17.9677C68.1433 18.503 69.0116 18.503 69.5475 17.9677C70.0832 17.4324 70.0832 16.5644 69.5475 16.0289L53.91 0.401481C53.3742 -0.133827 52.5059 -0.133827 51.97 0.401481L21.9296 30.4226C21.5374 30.8146 21.42 31.4042 21.6322 31.9165C21.8445 32.4289 22.3447 32.7629 22.8995 32.7629H24.2712V68.8156C24.2712 69.5727 24.8855 70.1864 25.6429 70.1864H47.4512C48.2086 70.1864 48.8229 69.5727 48.8229 68.8156C48.8229 68.0585 48.2086 67.4448 47.4512 67.4448H27.0146V32.7629H31.8387C32.2025 32.7629 32.5513 32.6184 32.8086 32.3614L52.9399 12.243L69.1664 28.4592L48.8248 48.7878V36.4641H58.4268C59.1842 36.4641 59.7985 35.8504 59.7985 35.0933C59.7985 34.3362 59.1842 33.7224 58.4268 33.7224H47.4531C46.6957 33.7224 46.0814 34.3362 46.0814 35.0933V50.9949C46.0814 51.1548 46.1102 51.3076 46.1606 51.4503L44.9316 52.6784C42.7602 54.8484 42.7602 58.3794 44.9316 60.5494C46.0175 61.6345 47.4434 62.1771 48.8697 62.177C50.2957 62.177 51.7221 61.6344 52.8077 60.5495L64.3756 48.9891C64.9113 48.4538 64.9113 47.5858 64.3756 47.0504C63.84 46.5151 62.9717 46.5151 62.4356 47.0504L53.6715 55.8089L49.6753 51.8153L74.7374 26.7693L78.7336 30.763L69.157 40.3335C68.6213 40.8688 68.6213 41.7369 69.157 42.2722C69.6928 42.8075 70.5611 42.8075 71.097 42.2722L81.6161 31.7598C81.757 31.6189 81.8656 31.4489 81.934 31.2619L85.3641 21.9018C85.5478 21.4006 85.4238 20.8385 85.0462 20.4611ZM51.7317 57.7474L50.8678 58.6108C50.3341 59.1442 49.6247 59.4379 48.8698 59.4379C48.115 59.4379 47.4054 59.1442 46.8718 58.6108C46.3379 58.0774 46.0441 57.3683 46.0441 56.614C46.0441 55.8598 46.3378 55.1505 46.8716 54.6171L47.7355 53.7538L51.7317 57.7474ZM80.1116 28.2624L77.2395 25.3922L81.7714 23.7336L80.1116 28.2624Z" fill="#35659F"/>
<path d="M67.7115 43.7159C67.4565 43.4609 67.1026 43.3142 66.7418 43.3142C66.3811 43.3142 66.0272 43.4609 65.772 43.7159C65.5169 43.9722 65.3701 44.3245 65.3701 44.685C65.3701 45.0469 65.5168 45.3992 65.772 45.6556C66.0272 45.9106 66.3797 46.0559 66.7418 46.0559C67.1026 46.0559 67.4565 45.9106 67.7115 45.6556C67.9666 45.3992 68.1135 45.0456 68.1135 44.685C68.1135 44.3245 67.9668 43.9722 67.7115 43.7159Z" fill="#35659F"/>
<path d="M52.9398 20.6995C50.0656 20.6995 47.7273 23.0363 47.7273 25.9086C47.7273 28.7809 50.0656 31.1177 52.9398 31.1177C55.8139 31.1177 58.1523 28.7809 58.1523 25.9086C58.1523 23.0363 55.8139 20.6995 52.9398 20.6995ZM52.9398 28.3761C51.5784 28.3761 50.4707 27.2693 50.4707 25.9086C50.4707 24.5481 51.5784 23.4411 52.9398 23.4411C54.3012 23.4411 55.4089 24.5481 55.4089 25.9086C55.4089 27.2692 54.3012 28.3761 52.9398 28.3761Z" fill="#35659F"/>
</svg>
